<svg xmlns="http://www.w3.org/2000/svg" width="64" height="64" viewBox="0 0 64 64">
  <!-- Board -->
  <rect x="8" y="10" width="48" height="44" rx="7" ry="7" fill="#1f7a4a" stroke="#0e3b25" stroke-width="2"/>
  <!-- Chip -->
  <rect x="26" y="16" width="12" height="32" rx="2.5" ry="2.5" fill="#0f2f1f" stroke="#061a11" stroke-width="1.5"/>
  <!-- Left vias -->
  <circle cx="14" cy="16" r="2.2" fill="#ffd400" stroke="#7a5a12" stroke-width="1.1"/>
  <circle cx="14" cy="27" r="2.2" fill="#ffd400" stroke="#7a5a12" stroke-width="1.1"/>
  <circle cx="14" cy="37" r="2.2" fill="#ffd400" stroke="#7a5a12" stroke-width="1.1"/>
  <circle cx="14" cy="48" r="2.2" fill="#ffd400" stroke="#7a5a12" stroke-width="1.1"/>
  <!-- Right vias -->
  <circle cx="50" cy="26" r="2.2" fill="#ffd400" stroke="#7a5a12" stroke-width="1.1"/>
  <circle cx="50" cy="42" r="2.2" fill="#ffd400" stroke="#7a5a12" stroke-width="1.1"/>
  <!-- Traces: left vias to left pads -->
  <path d="M14 16 L18 16 L22.5 20.5 L23.1 20.5" fill="none" stroke="#55e07b" stroke-width="2" stroke-linecap="round" stroke-linejoin="round"/>
  <path d="M14 27 L18 27 L19.5 28.5 L23.1 28.5" fill="none" stroke="#55e07b" stroke-width="2" stroke-linecap="round" stroke-linejoin="round"/>
  <path d="M14 37 L18 37 L18.5 36.5 L23.1 36.5" fill="none" stroke="#55e07b" stroke-width="2" stroke-linecap="round" stroke-linejoin="round"/>
  <path d="M14 48 L18 48 L21.5 44.5 L23.1 44.5" fill="none" stroke="#55e07b" stroke-width="2" stroke-linecap="round" stroke-linejoin="round"/>
  <!-- Traces: right pads to right vias -->
  <path d="M41 28.5 L44 28.5 L46.5 26 L50 26" fill="none" stroke="#55e07b" stroke-width="2" stroke-linecap="round" stroke-linejoin="round"/>
  <path d="M41 36.5 L44 36.5 L49.5 42 L50 42" fill="none" stroke="#55e07b" stroke-width="2" stroke-linecap="round" stroke-linejoin="round"/>
  <!-- Left pads -->
  <rect x="22" y="19" width="4" height="3" rx="0.8" fill="#d7dbe0" stroke="#8a9099" stroke-width="1"/>
  <rect x="22" y="27" width="4" height="3" rx="0.8" fill="#d7dbe0" stroke="#8a9099" stroke-width="1"/>
  <rect x="22" y="35" width="4" height="3" rx="0.8" fill="#d7dbe0" stroke="#8a9099" stroke-width="1"/>
  <rect x="22" y="43" width="4" height="3" rx="0.8" fill="#d7dbe0" stroke="#8a9099" stroke-width="1"/>
  <!-- Right pads -->
  <rect x="38" y="19" width="4" height="3" rx="0.8" fill="#d7dbe0" stroke="#8a9099" stroke-width="1" opacity="0.75"/>
  <rect x="38" y="27" width="4" height="3" rx="0.8" fill="#d7dbe0" stroke="#8a9099" stroke-width="1"/>
  <rect x="38" y="35" width="4" height="3" rx="0.8" fill="#d7dbe0" stroke="#8a9099" stroke-width="1"/>
  <rect x="38" y="43" width="4" height="3" rx="0.8" fill="#d7dbe0" stroke="#8a9099" stroke-width="1" opacity="0.75"/>
</svg>
